<?xml version="1.0" standalone="no"?>
<!DOCTYPE svg PUBLIC "-//W3C//DTD SVG 20010904//EN"
 "http://www.w3.org/TR/2001/REC-SVG-20010904/DTD/svg10.dtd">
<svg version="1.0" xmlns="http://www.w3.org/2000/svg"
 width="512.000000pt" height="512.000000pt" viewBox="0 0 512.000000 512.000000"
 preserveAspectRatio="xMidYMid meet">

<g transform="translate(0.000000,512.000000) scale(0.100000,-0.100000)"
fill="#000000" stroke="none">
<path d="M3195 5114 c-627 -69 -1159 -443 -1427 -1004 -100 -210 -168 -501
-168 -720 0 -51 4 -65 25 -85 32 -33 78 -33 110 0 20 19 25 34 25 75 0 82 20
238 42 335 143 623 631 1090 1270 1217 170 33 425 31 599 -5 161 -34 275 -74
419 -148 620 -318 965 -1009 845 -1692 -111 -626 -571 -1121 -1187 -1277 -116
-29 -144 -44 -154 -84 -8 -34 20 -84 54 -93 64 -16 307 54 490 142 357 171
637 446 812 800 77 157 111 250 146 405 22 97 24 127 24 373 0 297 -10 373
-71 559 -42 130 -156 355 -236 467 -265 370 -671 629 -1118 712 -107 20 -402
33 -500 23z"/>
<path d="M3145 4775 c-24 -23 -25 -29 -25 -168 l0 -143 -77 -32 c-151 -62
-269 -173 -337 -317 -47 -98 -61 -164 -60 -285 2 -134 33 -236 105 -344 80
-121 188 -203 331 -253 63 -23 95 -27 244 -32 166 -6 172 -7 206 -33 72 -55
88 -152 35 -222 -50 -64 -60 -66 -407 -66 -213 0 -325 -4 -352 -12 -22 -6 -62
-31 -88 -55 -103 -93 -107 -243 -7 -341 62 -60 104 -72 268 -72 l139 0 0 -135
c0 -131 1 -137 25 -160 24 -25 26 -25 215 -25 189 0 191 0 215 25 24 23 25 29
25 168 l0 144 68 26 c296 117 462 422 397 732 -38 182 -170 352 -335 434 -110
54 -194 71 -353 71 -147 0 -181 10 -225 68 -22 29 -27 46 -27 92 0 46 5 63 27
92 51 67 60 68 410 68 359 0 377 3 446 73 95 97 95 241 -1 335 -62 60 -104 72
-268 72 l-139 0 0 135 c0 131 -1 137 -25 160 -24 25 -26 25 -215 25 -189 0
-191 0 -215 -25z m295 -270 c0 -131 1 -137 25 -160 24 -25 26 -25 210 -25
l187 0 29 -29 c37 -37 37 -65 0 -102 l-29 -29 -321 0 c-303 0 -323 -1 -378
-22 -77 -29 -152 -104 -181 -181 -46 -122 -19 -252 72 -343 76 -75 134 -94
289 -94 67 0 152 -7 190 -15 220 -46 377 -237 377 -459 0 -230 -149 -419 -371
-470 -95 -23 -99 -30 -99 -197 l0 -139 -80 0 -80 0 0 135 c0 131 -1 137 -25
160 -24 25 -26 25 -210 25 l-187 0 -29 29 c-37 37 -37 65 0 102 l29 29 321 0
c303 0 323 1 378 22 77 29 152 104 181 181 46 122 19 252 -72 343 -76 75 -134
94 -289 94 -67 0 -152 7 -190 15 -220 46 -377 237 -377 459 0 231 144 414 370
471 97 24 100 30 100 196 l0 139 80 0 80 0 0 -135z"/>
<path d="M1145 4215 c-21 -20 -25 -34 -25 -80 l0 -55 -55 0 c-67 0 -105 -29
-105 -80 0 -51 38 -80 105 -80 l55 0 0 -55 c0 -67 29 -105 80 -105 51 0 80 38
80 105 l0 55 55 0 c67 0 105 29 105 80 0 51 -38 80 -105 80 l-55 0 0 55 c0 67
-29 105 -80 105 -19 0 -40 -9 -55 -25z"/>
<path d="M1553 3185 c-26 -18 -31 -33 -218 -685 -116 -403 -142 -483 -172
-530 -40 -61 -124 -145 -172 -173 l-31 -18 0 46 c0 35 -6 52 -25 70 l-24 25
-431 0 -431 0 -24 -25 -25 -24 0 -911 0 -911 25 -24 24 -25 431 0 431 0 24 25
c18 18 25 35 25 65 0 22 3 40 6 40 4 0 107 -29 230 -65 l224 -66 728 3 727 3
57 28 c72 35 141 111 163 178 31 93 15 224 -34 289 l-19 24 45 40 c68 60 103
140 103 237 0 67 -4 85 -33 141 l-32 65 44 38 c66 58 101 140 101 236 0 66 -4
84 -32 140 l-33 64 56 55 c160 158 118 410 -86 511 l-50 24 -557 3 c-307 1
-558 4 -558 5 0 2 14 104 31 227 16 124 33 266 36 315 13 231 -93 437 -269
522 -103 50 -214 67 -255 38z m200 -193 c84 -45 137 -131 158 -257 10 -63 7
-101 -30 -390 -23 -176 -41 -333 -41 -348 0 -16 10 -38 25 -52 l24 -25 588 0
589 0 44 -22 c48 -25 90 -89 90 -138 0 -49 -42 -113 -90 -138 -42 -21 -56 -22
-273 -22 l-228 0 -24 -25 c-33 -32 -33 -78 0 -110 24 -25 26 -25 212 -25 176
0 192 -2 233 -22 48 -25 90 -89 90 -138 0 -49 -42 -113 -90 -138 -42 -21 -56
-22 -273 -22 l-228 0 -24 -25 c-33 -32 -33 -78 0 -110 24 -25 26 -25 212 -25
176 0 192 -2 233 -22 48 -25 90 -89 90 -138 0 -49 -42 -113 -90 -137 -42 -22
-56 -23 -273 -23 l-228 0 -24 -25 c-33 -32 -33 -78 0 -110 24 -25 26 -25 212
-25 176 0 192 -2 233 -22 48 -25 90 -89 90 -138 0 -49 -42 -113 -90 -137 l-44
-23 -686 0 -685 0 -245 70 c-135 39 -246 70 -247 70 -2 0 -3 294 -3 654 l0
654 49 17 c108 36 242 162 323 305 16 27 85 254 172 560 81 283 149 521 151
528 6 16 32 9 98 -26z m-953 -2032 l0 -800 -320 0 -320 0 0 800 0 800 320 0
320 0 0 -800z"/>
<path d="M4105 1255 c-21 -20 -25 -34 -25 -80 l0 -55 -55 0 c-67 0 -105 -29
-105 -80 0 -51 38 -80 105 -80 l55 0 0 -55 c0 -67 29 -105 80 -105 51 0 80 38
80 105 l0 55 55 0 c67 0 105 29 105 80 0 51 -38 80 -105 80 l-55 0 0 55 c0 67
-29 105 -80 105 -19 0 -40 -9 -55 -25z"/>
</g>
</svg>
