<?xml version="1.0" standalone="no"?>
<!DOCTYPE svg PUBLIC "-//W3C//DTD SVG 20010904//EN"
 "http://www.w3.org/TR/2001/REC-SVG-20010904/DTD/svg10.dtd">
<svg version="1.0" xmlns="http://www.w3.org/2000/svg"
 width="448.000000pt" height="392.000000pt" viewBox="0 0 448.000000 392.000000"
 preserveAspectRatio="xMidYMid meet">

<g transform="translate(0.000000,392.000000) scale(0.100000,-0.100000)"
fill="#000000" stroke="none">
<path d="M1810 2657 c-68 -23 -135 -59 -185 -101 l-30 -24 60 14 c33 8 110 17
170 20 l110 7 -30 -33 c-16 -18 -77 -71 -133 -118 -78 -63 -106 -82 -112 -72
-7 11 -31 12 -131 4 l-122 -10 -43 -49 c-96 -111 -134 -241 -88 -302 l21 -28
154 2 c134 1 163 4 223 25 l68 24 3 65 c4 116 92 272 234 417 86 86 89 87 276
42 177 -42 366 -87 465 -110 47 -11 151 -36 232 -55 81 -19 153 -35 160 -34
12 0 -209 70 -557 176 -82 25 -236 72 -341 104 -222 69 -291 75 -404 36z"/>
<path d="M2006 2450 l-67 -81 87 3 88 3 17 67 16 66 -24 11 c-13 6 -30 11 -37
11 -7 0 -43 -36 -80 -80z"/>
<path d="M2230 2468 c0 -29 3 -104 7 -165 l6 -113 30 0 30 0 -8 153 c-4 83
-10 155 -13 158 -4 4 -17 10 -29 14 -22 6 -23 4 -23 -47z"/>
<path d="M2470 2360 c0 -38 1 -70 3 -71 21 -7 524 -25 530 -20 5 5 7 21 5 37
l-3 28 -255 48 c-140 26 -261 47 -267 48 -9 0 -13 -20 -13 -70z"/>
<path d="M3060 2290 l0 -30 163 1 162 1 -135 24 c-74 12 -147 25 -162 28 -26
5 -28 3 -28 -24z"/>
<path d="M3205 2215 c-66 -8 -172 -19 -235 -25 -63 -6 -153 -15 -200 -21 -113
-12 -467 -47 -605 -59 -145 -13 -152 -15 -205 -59 -63 -52 -82 -61 -137 -61
-26 0 -82 -11 -123 -25 -53 -18 -110 -27 -195 -32 l-120 -8 3 -40 c2 -22 6
-42 8 -44 10 -11 112 -20 231 -20 l131 -1 67 35 c50 27 87 38 148 46 79 10
275 54 717 160 226 55 255 62 480 114 85 20 166 41 180 45 l25 8 -25 0 c-14 0
-79 -6 -145 -13z"/>
<path d="M2698 2183 c7 -3 16 -2 19 1 4 3 -2 6 -13 5 -11 0 -14 -3 -6 -6z"/>
<path d="M2400 2170 c-47 -5 -164 -14 -259 -20 -125 -9 -188 -17 -220 -30 -26
-11 -39 -19 -31 -19 14 -1 193 17 400 39 52 5 147 15 210 21 63 6 117 13 119
15 7 6 -125 2 -219 -6z"/>
<path d="M2565 1994 c-154 -41 -350 -93 -435 -115 -85 -22 -189 -49 -230 -60
-120 -33 -366 -97 -480 -126 -102 -26 -104 -27 -75 -39 17 -7 47 -13 68 -14
22 0 215 53 440 121 221 67 530 159 687 205 268 80 339 103 315 103 -5 -1
-136 -34 -290 -75z"/>
<path d="M3146 1288 c-25 -39 -46 -75 -46 -80 0 -4 -16 -8 -35 -8 -28 0 -45
-9 -85 -48 -42 -41 -50 -54 -50 -85 0 -32 3 -37 24 -37 14 0 38 11 55 25 l30
26 3 -28 c2 -23 7 -28 28 -25 14 1 34 2 45 2 94 -4 94 -4 162 70 70 76 91 86
49 23 -29 -43 -33 -75 -11 -93 12 -10 22 -10 38 -3 13 6 36 9 51 6 17 -4 33 1
46 12 42 38 28 5 -20 -48 -51 -56 -65 -97 -32 -96 9 0 34 22 55 50 20 27 62
65 92 85 30 20 55 43 55 50 0 20 -6 18 -57 -17 -42 -29 -44 -30 -32 -8 6 13
29 49 50 80 21 31 36 59 33 62 -3 3 -26 3 -51 1 -57 -6 -124 -51 -147 -98 -18
-39 -51 -63 -61 -46 -3 6 11 37 31 70 28 45 34 64 26 72 -9 9 -18 8 -39 -2
-16 -8 -31 -16 -36 -18 -4 -2 -4 3 -1 12 4 11 1 16 -10 16 -9 0 -36 -31 -61
-69 -72 -113 -124 -122 -59 -11 26 45 33 65 25 73 -8 8 -18 4 -36 -13 -13 -12
-22 -27 -19 -31 8 -13 -55 -99 -71 -99 -8 0 -15 5 -15 10 0 16 45 104 101 196
54 90 55 94 35 94 -8 0 -35 -32 -60 -72z m369 -142 c-28 -37 -93 -91 -101 -84
-8 9 42 73 75 95 48 32 56 29 26 -11z m-463 -3 c-29 -41 -81 -88 -88 -80 -10
10 30 67 62 88 40 26 49 24 26 -8z"/>
<path d="M1345 1334 c-78 -29 -121 -98 -77 -125 16 -10 13 -15 -25 -54 -28
-27 -43 -51 -43 -67 0 -36 34 -63 80 -62 68 2 170 77 170 125 0 27 -25 23 -38
-6 -6 -13 -35 -38 -64 -55 -95 -55 -142 -22 -70 50 25 25 55 44 85 52 35 9 47
17 47 31 0 17 -6 18 -54 12 -36 -5 -56 -3 -61 5 -18 29 81 84 109 60 15 -12
62 -4 72 12 11 18 -19 38 -55 37 -20 0 -54 -7 -76 -15z"/>
<path d="M2280 1335 c-52 -16 -96 -56 -87 -79 8 -21 37 -21 37 -1 0 40 173 76
187 40 10 -27 -37 -67 -113 -95 -30 -12 -32 -18 21 63 17 26 17 27 -4 27 -22
0 -68 -63 -141 -192 -28 -52 -30 -59 -15 -65 11 -4 21 0 27 11 8 15 11 15 31
1 31 -22 86 -19 137 8 69 34 80 95 23 121 -19 9 -18 12 23 38 66 42 73 106 12
127 -40 14 -82 13 -138 -4z m92 -191 c32 -20 -33 -74 -91 -74 -26 0 -32 3 -27
16 5 13 2 15 -14 11 -18 -5 -19 -3 -5 23 8 16 23 31 32 34 20 5 91 -2 105 -10z"/>
<path d="M3224 1265 c-10 -26 6 -38 27 -19 10 9 19 21 19 26 0 14 -40 9 -46
-7z"/>
<path d="M1726 1204 c-54 -20 -78 -43 -74 -73 2 -20 11 -27 41 -34 44 -11 44
-31 0 -35 -25 -2 -33 1 -38 18 l-7 22 -22 -21 c-49 -46 -59 -20 -21 54 13 27
22 51 20 53 -2 3 -21 6 -42 8 -68 6 -143 -63 -143 -132 0 -50 39 -53 93 -6 15
14 17 13 17 -6 0 -25 35 -39 55 -22 10 9 19 9 36 0 25 -14 69 -7 104 16 44 29
28 68 -33 80 -41 8 -40 16 3 40 29 15 37 16 44 5 12 -18 53 4 49 27 -4 22 -34
24 -82 6z m-155 -51 c-14 -27 -90 -98 -97 -91 -9 10 23 65 52 87 34 27 59 28
45 4z"/>
<path d="M2504 1191 c-95 -58 -115 -191 -24 -159 46 16 120 107 120 147 0 8
-44 31 -58 31 -4 0 -21 -9 -38 -19z m51 -22 c16 -25 -80 -127 -101 -106 -11
11 8 48 42 82 37 37 49 42 59 24z"/>
<path d="M2821 1163 c-57 -92 -91 -125 -91 -88 0 9 11 38 25 65 14 28 24 50
23 51 -2 1 -22 3 -44 5 -49 4 -96 -22 -131 -75 -27 -40 -29 -64 -7 -85 21 -21
27 -20 63 10 17 14 31 21 31 16 0 -6 7 -18 16 -26 26 -26 64 -8 131 63 52 55
62 62 63 44 0 -31 15 -29 40 7 38 54 7 79 -45 38 l-27 -21 6 21 c14 41 -23 24
-53 -25z m-102 -10 c-51 -69 -99 -106 -99 -77 0 22 73 94 95 94 15 0 16 -2 4
-17z"/>
<path d="M1827 1141 c-46 -77 -51 -95 -32 -111 13 -11 21 -10 45 9 41 30 37
13 -10 -47 -22 -27 -40 -59 -40 -71 0 -31 36 -27 56 7 9 15 46 55 82 88 74 70
81 105 8 42 l-48 -42 16 32 c9 18 30 55 46 82 17 28 30 55 30 60 0 21 -26 8
-47 -23 -29 -43 -91 -102 -99 -95 -3 3 7 30 21 58 39 77 17 86 -28 11z"/>
<path d="M2007 1153 c-15 -14 -6 -33 17 -33 45 0 86 13 86 26 0 10 -14 14 -48
14 -27 0 -52 -3 -55 -7z"/>
</g>
</svg>